<!--?xml version="1.0" encoding="utf-8"?-->
<!-- Generator: Adobe Illustrator 25.2.3, SVG Export Plug-In . SVG Version: 6.00 Build 0)  -->
<svg version="1.1" id="_x32_" xmlns="http://www.w3.org/2000/svg" xmlns:xlink="http://www.w3.org/1999/xlink" x="0px" y="0px" viewBox="0 0 720 514" style="enable-background:new 0 0 720 514;" xml:space="preserve">
<style type="text/css">
	.st0{fill:#74AF71;}
	.st1{fill:#6AA567;}
	.st2{fill:#79B476;}
	.st3{fill:#ED90A1;}
	.st4{fill:#EF92A3;}
	.st5{fill:#F194A5;}
	.st6{fill:#F396A7;}
	.st7{fill:#F699AA;}
	.st8{fill:#F89BAC;}
	.st9{fill:#FA9DAE;}
	.st10{fill:#FC9FB0;}
	.st11{fill:#E88B9C;}
	.st12{fill:#FCA1B2;}
	.st13{fill:#FDA3B4;}
	.st14{fill:#FDA5B6;}
	.st15{fill:#FEA8B9;}
	.st16{fill:#FEAABB;}
	.st17{fill:#FFACBD;}
	.st18{fill:#FFAEBF;}
</style>
<g>
	<g>
		<g>
			<path class="st0" d="M370.524,481.376c0,0-289.678,125.311-370.524-115.254c36.212-34.327,171.56-68.022,270.756-15.795
				c44.583,23.483,81.872,64.327,99.555,130.279C370.388,480.863,370.456,481.12,370.524,481.376z" style="opacity: 1; stroke: none; stroke-width: 7px; fill: rgb(81, 175, 78);"></path>
			<path class="st1" d="M370.311,480.607c-29.702,2.831-54.988-2.506-103.732-14.093c-60.174-14.316-101.28-57.263-103.663-88.871
				c0,0,40.936-23.218,107.841-27.315C315.339,373.811,352.628,414.655,370.311,480.607z" style="opacity: 1; stroke: none; stroke-width: 7px; fill: rgb(201, 255, 197);"></path>
			<path class="st1" d="M340.192,462.932c-16.834-14.378-38.096-27.011-61.623-38c1.501-1.287,2.997-2.584,4.483-3.906
				c1.099-0.99,2.192-2.003,3.283-3.067c0.55-0.545,1.09-1.087,1.651-1.698c0.287-0.327,0.556-0.616,0.854-0.976l0.589-0.798
				c0.259-0.295,0.357-0.626,0.526-0.947c0.337-0.635,0.45-1.36,0.533-2.069c0.018-0.358,0.023-0.721,0.014-1.08
				c-0.008-0.175-0.031-0.355-0.047-0.512l-0.048-0.418c-0.164-1.04-0.423-1.902-0.697-2.73c-0.566-1.621-1.231-3.053-1.931-4.438
				c-2.838-5.469-6.152-10.303-9.543-15.107c-6.831-9.537-14.136-18.594-21.672-27.471c-0.765-0.878-3.842-2.556-4.861-1.358
				c-1.346,0.792-0.3,4.096,0.391,5.016c7.081,9.092,14.043,18.31,20.509,27.749c3.193,4.716,6.351,9.531,8.798,14.382
				c0.596,1.204,1.131,2.415,1.511,3.533c0.178,0.547,0.321,1.081,0.379,1.474c0.008,0.097,0.011,0.128,0.013,0.141l-0.057,0.078
				l-0.581,0.653c-0.42,0.453-0.902,0.938-1.382,1.411c-0.984,0.955-2.016,1.91-3.067,2.859c-2.259,2.012-4.56,4.002-6.881,5.981
				c-16.271-7.234-33.485-13.712-50.968-19.466c-0.035-0.085-0.067-0.172-0.104-0.256l-0.164-0.38l-0.321-0.675
				c-0.864-1.754-1.794-3.263-2.742-4.772c-1.904-2.985-3.901-5.809-5.938-8.595c-4.078-5.562-8.305-10.95-12.594-16.283
				c-8.589-10.651-17.427-21.055-26.423-31.328c-0.911-1.016-4.374-3.076-5.348-1.834c-1.37,0.772,0.099,4.504,0.942,5.569
				c8.587,10.545,17.115,21.148,25.444,31.861c4.157,5.359,8.271,10.75,12.202,16.212c1.725,2.401,3.41,4.823,4.982,7.255
				c-27.01-8.426-54.345-15.151-79.551-20.285c-0.055-0.135-0.108-0.275-0.165-0.406c-1.003-2.323-2.155-4.334-3.344-6.326
				c-1.194-1.976-2.437-3.888-3.712-5.765c-5.113-7.489-10.617-14.553-16.311-21.486c-0.595-0.697-2.821-1.414-3.9-0.284
				c-1.331,0.807-1.168,3.108-0.648,3.845c5.24,7.126,10.405,14.346,15.14,21.705c1.178,1.84,2.32,3.692,3.391,5.55
				c0.272,0.475,0.541,0.953,0.803,1.431c-50.953-9.836-91.592-12.941-100.251-10.273c0,0-12.123,4.045-2.425,5.664
				c6.081,1.014,43.613,4.892,96.46,15.419c-2.776,1.42-5.605,2.801-8.442,4.166c-4.07,1.955-8.17,3.875-12.282,5.781
				c-8.224,3.812-16.486,7.582-24.753,11.336c-0.818,0.392-2.651,2.57-1.87,3.918c0.403,1.509,3.256,1.725,4.111,1.408
				c8.495-3.319,16.933-6.768,25.316-10.386c4.192-1.81,8.367-3.665,12.523-5.595c4.157-1.934,8.29-3.92,12.407-6.138
				c1.009-0.554,2.015-1.105,3.032-1.72c0.293-0.168,0.591-0.352,0.89-0.541c24.067,5.022,50.872,11.375,79.054,19.377
				c-2.702,1.436-5.457,2.829-8.231,4.199c-5.931,2.922-11.938,5.752-17.963,8.551c-12.055,5.59-24.191,11.063-36.345,16.485
				c-1.233,0.57-3.376,2.885-2.497,4.192c0.314,1.547,3.479,1.625,4.749,1.131c12.38-4.999,24.691-10.155,36.919-15.558
				c6.113-2.707,12.203-5.474,18.256-8.387c3.026-1.46,6.042-2.952,9.048-4.542c1.503-0.797,3.003-1.617,4.508-2.5
				c0.42-0.248,0.84-0.502,1.263-0.764c2.497,0.735,5,1.479,7.514,2.24c13.808,4.179,27.34,9.111,40.023,14.209
				c-3.551,2.935-7.122,5.857-10.684,8.777l-26.379,21.375c-0.888,0.739-2.032,3.261-0.886,4.329
				c0.733,1.387,3.47,0.922,4.412,0.247c9.126-6.75,18.171-13.6,27.125-20.588c4.661-3.659,9.304-7.322,13.902-11.073
				C311.618,448.813,341.976,466.502,340.192,462.932z M283.305,410.659c0,0.001,0.001,0.004,0.001,0.004c0,0.001,0-0.001,0,0.001
				l-0.003,0.003L283.305,410.659z" style="opacity: 1; stroke: none; stroke-width: 7px; fill: rgb(201, 255, 197);"></path>
			<path class="st1" d="M53.807,446.044c23.791,20.208,173.373,67.863,278.956,38.436c17.397-3.003,9.598,4.204-17.997,11.411
				s-85.187,21.62-151.776,8.408c-66.589-13.212-88.186-31.83-100.784-42.64S34.01,429.229,53.807,446.044z" style="opacity: 1; stroke: none; stroke-width: 7px; fill: rgb(201, 255, 197);"></path>
			<path class="st2" d="M36.734,352.934c5.749-4.427,31.397-12.395,41.568-13.724c10.171-1.328,7.96,8.411-2.653,13.281
				c-10.613,4.87-36.703,5.755-40.683,4.87C30.985,356.475,36.734,352.934,36.734,352.934z" style="opacity: 1; stroke: none; stroke-width: 7px; fill: rgb(255, 255, 255);"></path>
		</g>
		<g>
			<path class="st0" d="M349.476,481.376c0,0,289.678,125.311,370.524-115.254c-36.212-34.327-171.56-68.022-270.756-15.795
				c-44.583,23.483-81.872,64.327-99.555,130.279C349.612,480.863,349.544,481.12,349.476,481.376z" style="opacity: 1; stroke: none; stroke-width: 7px; fill: rgb(81, 175, 78);"></path>
			<path class="st1" d="M349.689,480.607c29.702,2.831,54.988-2.506,103.732-14.093c60.174-14.316,101.28-57.263,103.663-88.871
				c0,0-40.936-23.218-107.841-27.315C404.661,373.811,367.372,414.655,349.689,480.607z" style="opacity: 1; stroke: none; stroke-width: 7px; fill: rgb(201, 255, 197);"></path>
			<path class="st1" d="M449.485,431.663c4.598,3.751,9.241,7.413,13.902,11.073c8.954,6.988,17.999,13.838,27.125,20.588
				c0.942,0.675,3.679,1.14,4.412-0.247c1.146-1.068,0.002-3.59-0.886-4.329l-26.379-21.375c-3.562-2.92-7.133-5.842-10.684-8.777
				c12.683-5.098,26.215-10.03,40.023-14.209c2.514-0.761,5.017-1.505,7.514-2.24c0.422,0.261,0.843,0.515,1.263,0.764
				c1.505,0.883,3.005,1.702,4.508,2.5c3.005,1.59,6.022,3.082,9.048,4.542c6.053,2.913,12.143,5.68,18.256,8.387
				c12.228,5.403,24.539,10.559,36.919,15.558c1.27,0.494,4.435,0.416,4.749-1.131c0.879-1.307-1.264-3.622-2.497-4.192
				c-12.153-5.422-24.29-10.894-36.345-16.485c-6.025-2.799-12.032-5.629-17.963-8.551c-2.773-1.37-5.528-2.763-8.231-4.199
				c28.182-8.002,54.988-14.355,79.054-19.377c0.299,0.189,0.597,0.373,0.89,0.541c1.017,0.614,2.023,1.165,3.032,1.72
				c4.117,2.218,8.25,4.204,12.407,6.138c4.156,1.93,8.331,3.786,12.523,5.595c8.384,3.618,16.822,7.067,25.316,10.386
				c0.855,0.316,3.707,0.1,4.111-1.408c0.781-1.348-1.052-3.526-1.87-3.918c-8.267-3.754-16.529-7.525-24.753-11.336
				c-4.112-1.906-8.212-3.827-12.282-5.781c-2.837-1.364-5.666-2.745-8.442-4.166c52.847-10.527,90.379-14.405,96.46-15.419
				c9.698-1.618-2.425-5.664-2.425-5.664c-8.659-2.667-49.298,0.437-100.251,10.273c0.263-0.478,0.531-0.956,0.803-1.431
				c1.072-1.858,2.213-3.711,3.391-5.55c4.736-7.358,9.9-14.579,15.14-21.705c0.52-0.737,0.684-3.038-0.648-3.845
				c-1.078-1.13-3.304-0.413-3.9,0.284c-5.694,6.933-11.198,13.997-16.311,21.486c-1.275,1.877-2.518,3.788-3.712,5.765
				c-1.188,1.991-2.341,4.003-3.344,6.326c-0.057,0.13-0.11,0.271-0.165,0.406c-25.206,5.134-52.541,11.859-79.551,20.285
				c1.573-2.432,3.257-4.854,4.982-7.255c3.931-5.463,8.045-10.853,12.202-16.212c8.329-10.713,16.857-21.316,25.444-31.861
				c0.843-1.064,2.312-4.797,0.942-5.569c-0.974-1.243-4.437,0.818-5.348,1.834c-8.996,10.274-17.834,20.677-26.423,31.328
				c-4.289,5.332-8.517,10.72-12.594,16.283c-2.037,2.786-4.034,5.611-5.938,8.595c-0.949,1.509-1.878,3.018-2.742,4.772
				l-0.321,0.675l-0.164,0.38c-0.037,0.084-0.069,0.171-0.104,0.256c-17.483,5.754-34.697,12.232-50.968,19.466
				c-2.321-1.979-4.622-3.969-6.881-5.981c-1.051-0.949-2.083-1.903-3.067-2.859c-0.48-0.473-0.962-0.957-1.382-1.411l-0.581-0.653
				l-0.057-0.078c0.002-0.013,0.005-0.045,0.013-0.141c0.058-0.393,0.201-0.927,0.379-1.474c0.38-1.118,0.916-2.33,1.511-3.533
				c2.447-4.851,5.605-9.666,8.798-14.382c6.466-9.44,13.428-18.657,20.509-27.749c0.692-0.919,1.738-4.224,0.391-5.016
				c-1.019-1.198-4.096,0.48-4.861,1.358c-7.535,8.877-14.841,17.934-21.672,27.471c-3.391,4.804-6.706,9.638-9.543,15.107
				c-0.7,1.385-1.366,2.817-1.931,4.438c-0.274,0.828-0.534,1.69-0.697,2.73l-0.048,0.418c-0.016,0.157-0.039,0.337-0.047,0.512
				c-0.009,0.359-0.005,0.722,0.014,1.08c0.083,0.709,0.196,1.434,0.533,2.069c0.169,0.322,0.267,0.653,0.526,0.947l0.589,0.798
				c0.298,0.36,0.567,0.65,0.854,0.976c0.561,0.61,1.101,1.153,1.651,1.698c1.091,1.064,2.184,2.076,3.283,3.067
				c1.486,1.322,2.982,2.619,4.483,3.906c-23.527,10.988-44.79,23.621-61.624,38C378.024,466.502,408.382,448.813,449.485,431.663z
				 M436.698,410.667l-0.003-0.003c0-0.002,0,0,0-0.001c0,0,0-0.004,0.001-0.004L436.698,410.667z" style="opacity: 1; stroke: none; stroke-width: 7px; fill: rgb(201, 255, 197);"></path>
			<path class="st1" d="M666.193,446.044c-23.791,20.208-173.373,67.863-278.956,38.436c-17.397-3.003-9.598,4.204,17.997,11.411
				s85.187,21.62,151.776,8.408c66.589-13.212,88.186-31.83,100.784-42.64S685.99,429.229,666.193,446.044z" style="opacity: 1; stroke: none; stroke-width: 7px; fill: rgb(201, 255, 197);"></path>
			<path class="st2" d="M683.266,352.934c-5.749-4.427-31.397-12.395-41.568-13.724c-10.171-1.328-7.96,8.411,2.653,13.281
				c10.613,4.87,36.703,5.755,40.683,4.87C689.015,356.475,683.266,352.934,683.266,352.934z" style="opacity: 1; stroke: none; stroke-width: 7px; fill: rgb(255, 255, 255);"></path>
		</g>
	</g>
	<g>
		<g>
			<path class="st3" d="M467.174,453.455c-28.908,11.092-91.021,13.615-107.175,3.138c-4.305,2.788-11.883,4.661-21.22,5.687
				c-5.16,0.573-10.866,0.881-16.863,0.949c-23.808,0.282-52.144-3.275-69.084-9.775c-84.69-32.506-138.987-90.128-135.766-190.844
				C122.329,98.483,338.652,18.746,360,0c21.356,18.746,237.671,98.483,242.933,262.611
				C606.162,363.326,551.856,420.949,467.174,453.455z" style="opacity: 1; stroke: none; stroke-width: 7px; fill: rgb(255, 255, 255);"></path>
			<path class="st4" d="M465.372,442.038c-28.422,10.752-89.49,13.197-105.373,3.042c-4.233,2.703-11.683,4.518-20.863,5.513
				c-5.073,0.556-10.684,0.854-16.58,0.92c-23.408,0.274-51.267-3.175-67.922-9.475c-83.266-31.51-136.65-87.367-133.484-184.996
				C126.325,97.944,339.011,20.65,360,2.478c20.997,18.171,233.674,95.466,238.848,254.564
				C602.023,354.672,548.63,410.529,465.372,442.038z" style="opacity: 1; stroke: none; stroke-width: 7px; fill: rgb(255, 195, 211);"></path>
			<path class="st5" d="M463.57,430.622c-27.936,10.412-87.96,12.78-103.571,2.946c-4.161,2.617-11.483,4.375-20.506,5.338
				c-4.986,0.538-10.501,0.827-16.296,0.891c-23.008,0.265-50.39-3.075-66.76-9.176c-81.842-30.514-134.313-84.605-131.201-179.148
				C130.321,97.405,339.37,22.554,360,4.957c20.638,17.597,229.678,92.448,234.763,246.517
				C597.884,346.017,545.405,400.108,463.57,430.622z" style="opacity: 1; stroke: none; stroke-width: 7px; fill: rgb(255, 192, 215);"></path>
			<path class="st6" d="M461.768,419.206c-27.45,10.072-86.429,12.363-101.768,2.85c-4.088,2.532-11.283,4.232-20.149,5.164
				c-4.899,0.52-10.318,0.8-16.013,0.862c-22.607,0.256-49.513-2.974-65.599-8.876c-80.418-29.518-131.976-81.843-128.918-173.3
				C134.318,96.866,339.729,24.458,360,7.435c20.279,17.022,225.682,89.43,230.678,238.47
				C593.744,337.362,542.179,389.688,461.768,419.206z" style="opacity: 1; stroke: none; stroke-width: 7px; fill: rgb(255, 174, 201);"></path>
			<path class="st7" d="M459.966,407.789c-26.964,9.732-84.899,11.946-99.966,2.754c-4.016,2.446-11.084,4.089-19.792,4.99
				c-4.813,0.503-10.135,0.773-15.729,0.833c-22.207,0.248-48.637-2.874-64.437-8.577
				c-78.994-28.522-129.639-79.081-126.635-167.452C138.314,96.326,340.087,26.362,360,9.914
				c19.92,16.448,221.686,86.413,226.594,230.423C589.605,328.708,538.953,379.268,459.966,407.789z" style="opacity: 1; stroke: none; stroke-width: 7px; fill: rgb(255, 154, 188);"></path>
			<path class="st8" d="M458.164,396.373c-26.477,9.392-83.368,11.529-98.164,2.658c-3.943,2.361-10.884,3.947-19.436,4.816
				c-4.726,0.485-9.953,0.746-15.445,0.804c-21.807,0.239-47.76-2.773-63.276-8.277c-77.57-27.525-127.302-76.32-124.352-161.605
				C142.31,95.787,340.446,28.266,360,12.392c19.561,15.874,217.689,83.395,222.509,222.376
				C585.466,320.053,535.727,368.848,458.164,396.373z" style="opacity: 1; stroke: none; stroke-width: 7px;"></path>
			<path class="st9" d="M456.362,384.957c-25.991,9.053-81.838,11.111-96.362,2.561c-3.871,2.275-10.684,3.804-19.079,4.641
				c-4.639,0.468-9.77,0.719-15.162,0.775c-21.406,0.23-46.883-2.673-62.114-7.978C187.499,358.427,138.68,311.399,141.576,229.2
				C146.307,95.248,340.805,30.17,360,14.871C379.201,30.17,573.693,95.248,578.424,229.2
				C581.327,311.399,532.501,358.427,456.362,384.957z" style="opacity: 1; stroke: none; stroke-width: 7px;"></path>
			<path class="st10" d="M454.56,373.54c-25.505,8.713-80.307,10.694-94.56,2.465c-3.799,2.19-10.484,3.661-18.722,4.467
				c-4.552,0.45-9.587,0.692-14.878,0.746c-21.006,0.222-46.006-2.573-60.952-7.678c-74.722-25.533-122.628-70.796-119.787-149.909
				C150.303,94.708,341.164,32.074,360,17.349c18.843,14.725,209.697,77.359,214.339,206.283
				C577.188,302.744,529.275,348.007,454.56,373.54z" style="opacity: 1; stroke: none; stroke-width: 7px; fill: rgb(255, 136, 195);"></path>
		</g>
		<path class="st3" d="M361.247,158.116c-56.68,85.373-33.615,275.678-1.247,298.477c-4.305,2.788-11.883,4.661-21.22,5.687
			c-18.256-15.752-41.44-56.656-46.343-92.651c-2.939-21.628-3.759-45.607-1.153-71.69c9.602-96.106,42.439-138.925,61.634-146.622
			C358.308,149.153,362.477,156.269,361.247,158.116z" style="opacity: 1; stroke: none; stroke-width: 7px; fill: rgb(255, 255, 255);"></path>
		<path class="st11" d="M327.013,437.882c-6.692-12.214-15.124-41.124-17.486-66.581c-1.62-17.49-2.255-35.551-1.888-53.68
			c1.404-69.334,11.714-103.191,18.301-109.032c0.026-0.023,0.041-0.029,0.044-0.03c0.089,0.018,0.251,0.299,0.378,0.616
			c-11.638,41.866-9.952,106.841-8.673,133.02c1.745,35.724,6.485,77.888,13.104,94.02
			C329.876,436.8,328.648,437.39,327.013,437.882z" style="opacity: 1; stroke: none; stroke-width: 7px; fill: rgb(255, 195, 215);"></path>
		<g>
			<path class="st10" d="M224.313,151.397c-15.171-15.187,48.108-90.764,109.168-106.818s1.234,48.161-38.857,83.972
				S231.097,158.189,224.313,151.397z" style="opacity: 1; stroke: none; stroke-width: 7px; fill: rgb(255, 136, 195);"></path>
			<path class="st12" d="M229.314,146.112c-13.868-13.883,43.977-82.969,99.793-97.644s1.128,44.025-35.52,76.761
				S235.515,152.32,229.314,146.112z" style="opacity: 1; stroke: none; stroke-width: 7px; fill: rgb(255, 154, 245);"></path>
			<path class="st13" d="M234.314,140.827c-12.565-12.579,39.845-75.174,90.417-88.47s1.022,39.888-32.182,69.549
				S239.934,146.452,234.314,140.827z" style="opacity: 1; stroke: none; stroke-width: 7px; fill: rgb(255, 169, 255);"></path>
			<path class="st14" d="M239.315,135.542c-11.262-11.274,35.713-67.379,81.042-79.297s0.916,35.752-28.845,62.337
				S244.352,140.584,239.315,135.542z" style="opacity: 1; stroke: none; stroke-width: 7px; fill: rgb(255, 197, 245);"></path>
			<path class="st15" d="M244.316,130.256c-9.959-9.97,31.582-59.584,71.666-70.123s0.81,31.616-25.508,55.126
				C264.156,138.768,248.77,134.715,244.316,130.256z" style="opacity: 1; stroke: none; stroke-width: 7px; fill: rgb(255, 207, 226);"></path>
			<path class="st16" d="M249.317,124.971c-8.656-8.666,27.45-51.789,62.29-60.949s0.704,27.48-22.171,47.914
				C266.561,132.37,253.188,128.847,249.317,124.971z" style="opacity: 1; stroke: none; stroke-width: 7px; fill: rgb(255, 210, 243);"></path>
			<path class="st17" d="M254.318,119.686c-7.353-7.361,23.318-43.994,52.915-51.776c29.596-7.781,0.598,23.344-18.834,40.702
				S257.606,122.978,254.318,119.686z" style="opacity: 1; stroke: none; stroke-width: 7px; fill: rgb(255, 230, 248);"></path>
			<path class="st18" d="M259.319,114.401c-6.05-6.057,19.187-36.199,43.539-42.602c24.352-6.403,0.492,19.208-15.497,33.49
				S262.024,117.11,259.319,114.401z" style="opacity: 1; stroke: none; stroke-width: 7px; fill: rgb(255, 230, 249);"></path>
		</g>
	</g>
</g>
</svg>
